FFmpeg version SVN-r25716, Copyright (c) 2000-2010 the FFmpeg developers  built on Nov 10 2010 12:23:18 with gcc 4.1.2 20080704 (Red Hat 4.1.2-48)  configuration: --enable-libmp3lame --enable-shared --disable-mmx --arch=x86_64  libavutil     50.33. 0 / 50.33. 0  libavcore      0.12. 1 /  0.12. 1  libavcodec    52.94. 4 / 52.94. 4  libavformat   52.84. 0 / 52.84. 0  libavdevice   52. 2. 2 / 52. 2. 2  libavfilter    1.59. 0 /  1.59. 0  libswscale     0.12. 0 /  0.12. 0Input #0, mov,mp4,m4a,3gp,3g2,mj2, from '/RAID10/data/converted_video_files/7761.mov':  Duration: 00:00:52.00, start: 0.000000, bitrate: 3163 kb/s    Stream #0.0(eng): Video: h264, yuv420p, 456x512 [PAR 1:1 DAR 57:64], 3157 kb/s, 5 fps, 5 tbr, 90k tbn, 10 tbc    Stream #0.1(eng): Audio: aac, 48000 Hz, stereo, s16, 3 kb/s[buffer @ 0x11b1e840] w:456 h:512 pixfmt:yuv420pOutput #0, flv, to '/RAID10/data/converted_video_files/7761.flv':  Metadata:    encoder         : Lavf52.84.0    Stream #0.0(eng): Video: flv, yuv420p, 456x512 [PAR 1:1 DAR 57:64], q=2-31, 600 kb/s, 1k tbn, 24 tbc    Stream #0.1(eng): Audio: libmp3lame, 22050 Hz, stereo, s16, 96 kb/sStream mapping:  Stream #0.0 -> #0.0  Stream #0.1 -> #0.1Press [q] to stop encodingframe=   17 fps=  0 q=26.0 size=     676kB time=3.08 bitrate=1796.1kbits/s    frame=   37 fps= 35 q=20.4 size=     760kB time=7.05 bitrate= 882.9kbits/s    frame=   56 fps= 36 q=15.9 size=     873kB time=10.87 bitrate= 658.3kbits/s    frame=   75 fps= 36 q=14.6 size=    1036kB time=14.66 bitrate= 579.2kbits/s    frame=   94 fps= 36 q=12.6 size=    1200kB time=18.44 bitrate= 533.2kbits/s    frame=  112 fps= 36 q=12.0 size=    1406kB time=22.18 bitrate= 519.5kbits/s    frame=  131 fps= 36 q=9.3 size=    1622kB time=25.86 bitrate= 513.7kbits/s    frame=  151 fps= 37 q=11.3 size=    1871kB time=29.86 bitrate= 513.4kbits/s    frame=  170 fps= 37 q=11.4 size=    2133kB time=33.67 bitrate= 519.0kbits/s    frame=  188 fps= 37 q=11.4 size=    2381kB time=37.28 bitrate= 523.2kbits/s    frame=  207 fps= 37 q=11.2 size=    2654kB time=41.06 bitrate= 529.4kbits/s    frame=  226 fps= 37 q=10.6 size=    2921kB time=44.85 bitrate= 533.5kbits/s    frame=  244 fps= 37 q=10.6 size=    3195kB time=48.46 bitrate= 540.2kbits/s    frame=  260 fps= 36 q=10.0 Lsize=    3441kB time=51.83 bitrate= 543.9kbits/s    video:2797kB audio:609kB global headers:0kB muxing overhead 1.041403%